<?xml version="1.0" standalone="no"?><!DOCTYPE svg PUBLIC "-//W3C//DTD SVG 1.1//EN" "http://www.w3.org/Graphics/SVG/1.1/DTD/svg11.dtd"><svg t="1510039160191" class="icon" style="" viewBox="0 0 1024 1024" version="1.1" xmlns="http://www.w3.org/2000/svg" p-id="2648" xmlns:xlink="http://www.w3.org/1999/xlink" width="200" height="200"><defs><style type="text/css"></style></defs><path d="M32 512c0 265.097 214.903 480 480 480s480-214.903 480-480c0-265.097-214.903-480-480-480-265.097 0-480 214.903-480 480z" fill="#6C8CB8" p-id="2649"></path><path d="M238.218 797.858h594.648v-387.397l-72.932-68.483v-119.344h-127.1l-97.291-91.356-97.293 91.356h-127.099v119.344l-72.934 68.483z" fill="" p-id="2650"></path><path d="M214.676 386.918h594.647v387.397h-594.647z" fill="#858387" p-id="2651"></path><path d="M214.676 386.918l297.323-279.183 297.324 279.183z" fill="#EBEBED" p-id="2652"></path><path d="M287.608 199.092h448.782v536.843h-448.782z" fill="#FDD095" p-id="2653"></path><path d="M363.928 336.050h296.144v25.639h-296.144zM363.928 269.361h192.040v25.090h-192.040zM363.928 394.301h296.144v25.639h-296.144zM363.928 452.552h296.144v25.639h-296.144zM363.928 510.804h296.144v25.638h-296.144z" fill="#858387" p-id="2654"></path><path d="M214.676 774.315l224.776-205.805 145.096 0.001 224.775 205.804z" fill="#EBEBED" p-id="2655"></path><path d="M214.676 386.918l224.776 181.593-224.776 205.805zM809.322 386.918l-224.776 181.593 224.776 205.805z" fill="#C0C1C6" p-id="2656"></path><path d="M606.44 247.328h53.632v55.888h-53.632z" fill="#6FA43C" p-id="2657"></path></svg>