<?xml version="1.0" standalone="no"?><!DOCTYPE svg PUBLIC "-//W3C//DTD SVG 1.1//EN" "http://www.w3.org/Graphics/SVG/1.1/DTD/svg11.dtd"><svg t="1508571265283" class="icon" style="" viewBox="0 0 1024 1024" version="1.1" xmlns="http://www.w3.org/2000/svg" p-id="1819" xmlns:xlink="http://www.w3.org/1999/xlink" width="16" height="16"><defs><style type="text/css"></style></defs><path d="M848.544914 0H175.455086C78.657829 0 0 78.555429 0 175.455086v673.104457C0 945.342171 78.555429 1024 175.455086 1024h673.104457C945.342171 1024 1024 945.444571 1024 848.544914V175.455086C1024 78.657829 945.444571 0 848.544914 0zM752.932571 743.277714a22.016 22.016 0 0 1-11.966171 3.540115H545.909029a21.942857 21.942857 0 0 1-21.942858-21.942858v-49.9712a126.815086 126.815086 0 0 0-75.3664-115.653485 22.001371 22.001371 0 0 1-12.931657-17.905372 22.001371 22.001371 0 0 1 9.157486-20.0704 82.973257 82.973257 0 0 0 35.254857-67.613257 82.958629 82.958629 0 0 0-82.885486-82.885486 82.944 82.944 0 0 0-82.885485 82.885486c0 26.741029 13.165714 52.0192 35.254857 67.613257 6.436571 4.564114 9.918171 12.229486 9.157486 20.0704a22.001371 22.001371 0 0 1-12.931658 17.905372 126.815086 126.815086 0 0 0-75.3664 115.653485c0 2.779429-0.526629 5.500343-1.550628 8.074972-0.4096 1.345829-2.4576 9.8304 5.792914 19.953371h155.4432a21.942857 21.942857 0 0 1 0 43.885715h-164.571428c-5.295543 0-10.386286-1.901714-14.365258-5.354058-28.145371-24.3712-29.140114-53.628343-24.605257-70.100114a170.569143 170.569143 0 0 1 73.493943-136.513828 126.537143 126.537143 0 0 1-29.637486-81.188572c0-69.924571 56.846629-126.7712 126.7712-126.7712s126.7712 56.846629 126.7712 126.7712a126.537143 126.537143 0 0 1-29.637485 81.188572 170.525257 170.525257 0 0 1 73.5232 140.053942v28.028343h165.946514c21.123657-17.554286 21.796571-47.045486 21.796571-47.367314 0-58.9824-48.186514-108.046629-107.402971-109.275429a21.986743 21.986743 0 0 1-20.977371-17.2032 21.9136 21.9136 0 0 1 11.732114-24.429714c33.616457-16.559543 54.4768-49.737143 54.4768-86.659657a97.045943 97.045943 0 0 0-96.928914-96.928914c-23.493486 0.672914-54.974171 4.885943-63.400229 10.122971a21.928229 21.928229 0 1 1-23.113143-37.302857c22.498743-13.9264 71.445943-16.296229 85.928229-16.705829 78.2336 0 141.399771 63.195429 141.399771 140.814629a139.000686 139.000686 0 0 1-36.746971 94.529829c57.665829 22.235429 98.9184 78.409143 98.9184 143.184457 0 2.340571-0.526629 57.665829-46.548115 87.566628z" p-id="1820"></path></svg>