<?xml version="1.0" standalone="no"?><!DOCTYPE svg PUBLIC "-//W3C//DTD SVG 1.1//EN" "http://www.w3.org/Graphics/SVG/1.1/DTD/svg11.dtd"><svg t="1508578624961" class="icon" style="" viewBox="0 0 1024 1024" version="1.1" xmlns="http://www.w3.org/2000/svg" p-id="10476" xmlns:xlink="http://www.w3.org/1999/xlink" width="16" height="16"><defs><style type="text/css"></style></defs><path d="M63.619143 428.640131c0 200.837259 163.374883 364.309447 364.309446 364.309447s364.309447-163.472188 364.309447-364.309447c0-200.934564-163.472188-364.309447-364.309447-364.309446C227.09133 64.330685 63.619143 227.705567 63.619143 428.640131z m56.047607 0c0-169.991614 138.270225-308.261839 308.261839-308.261839 169.990398 0 308.261839 138.270225 308.26184 308.261839S597.918987 736.901971 427.928589 736.901971c-169.991614 0-308.261839-138.36753-308.261839-308.26184z m579.937046 316.144751l-39.019254 40.186912 156.271627 151.503689c16.444524 16.347219 37.85038 24.618133 59.453278 24.618133 21.601682 0 43.104843-8.173609 59.453277-24.618133 15.860694-15.860694 24.616917-37.071941 24.616917-59.453278s-8.756222-43.592583-24.325002-59.161363L784.25782 661.296084l-40.186913 39.019254 152.087517 156.855456c5.351768 5.254463 8.174826 12.357719 8.174826 19.850194s-2.919146 14.595731-8.174826 19.850195c-10.898146 10.898146-28.704938 10.898146-39.894998-0.291915L699.603796 744.784882zM269.516255 587.052465l39.603084-39.603083c-65.583485-65.48618-65.583485-172.132321 0-237.715806l-39.603084-39.700389c-87.379776 87.477081-87.379776 229.639502 0 317.019278z" p-id="10477"></path></svg>