<?xml version="1.0" standalone="no"?><!DOCTYPE svg PUBLIC "-//W3C//DTD SVG 1.1//EN" "http://www.w3.org/Graphics/SVG/1.1/DTD/svg11.dtd"><svg t="1508578674245" class="icon" style="" viewBox="0 0 1024 1024" version="1.1" xmlns="http://www.w3.org/2000/svg" p-id="11215" xmlns:xlink="http://www.w3.org/1999/xlink" width="16" height="16"><defs><style type="text/css"></style></defs><path d="M512.085958 64.300468c-247.461021 0-448.072015 200.607924-448.072015 448.069969 0 247.467161 200.610994 448.075085 448.072015 448.075085 110.503766 0 211.661677-40.005133 289.790082-106.319467-2.858094-15.184841-13.529131-29.296233-48.186466-28.791743-66.812685 51.65445-150.616346 82.393545-241.602593 82.393545-218.348983 0-395.356396-177.005366-395.356396-395.356396 0-218.348983 177.007413-395.356396 395.356396-395.356396 218.352053 0 395.356396 177.007413 395.356396 395.356396 0 83.222423-25.716708 160.435992-69.632917 224.134757 8.057513 15.902178 22.756283 27.66713 49.544393 20.781302 46.035476-70.393233 72.804143-154.527422 72.804143-244.916059C960.158996 264.908392 759.548002 64.300468 512.085958 64.300468zM577.979714 248.799506c-21.834284 0-39.538505 17.701151-39.538505 39.535435 0 21.834284 17.703197 39.535435 39.538505 39.535435s39.535435-17.701151 39.535435-39.535435C617.515149 266.500657 599.813998 248.799506 577.979714 248.799506zM459.373409 723.227796c0 14.558577 11.79872 26.360368 26.355251 26.360368 4.488221 0 8.713452-1.124614 12.412704-3.103688l93.016487-23.25668c14.558577 0 26.358321-11.80179 26.358321-26.355251 0-14.556531-11.79872-26.358321-26.358321-26.358321l-70.285786 17.572214 67.184145-268.734534c1.977028-3.698229 3.101641-7.921413 3.101641-12.407588 0-14.558577-11.80179-26.360368-26.355251-26.360368-4.487198 0-8.711406 1.124614-12.410658 3.102664l-93.01751 23.257703c-14.558577 0-26.358321 11.80179-26.358321 26.355251 0 14.556531 11.79872 26.358321 26.358321 26.358321l70.282716-17.571191-67.181075 268.732487C460.498022 714.51639 459.373409 718.740598 459.373409 723.227796z" p-id="11216"></path></svg>