<?xml version="1.0" standalone="no"?><!DOCTYPE svg PUBLIC "-//W3C//DTD SVG 1.1//EN" "http://www.w3.org/Graphics/SVG/1.1/DTD/svg11.dtd"><svg t="1508604631913" class="icon" style="" viewBox="0 0 1024 1024" version="1.1" xmlns="http://www.w3.org/2000/svg" p-id="2267" xmlns:xlink="http://www.w3.org/1999/xlink" width="16" height="16"><defs><style type="text/css"></style></defs><path d="M528.28522754 84.25103785c-11.3883582-5.79104859-24.99229196-4.19767182-34.90277088 4.11943155-0.46695978 0.35021953-48.85692538 40.34484148-102.26050055 81.19514271-92.97097765 71.20518076-119.98386464 83.06049874-125.50293398 85.00409504L134.05057601 254.56970715c-0.62219878 0-1.28289755 0.11674025-1.94359631 0.11674024l-59.38960429 0c-14.92533126 0-27.12962723 12.67125574-27.12962723 28.25604423l0 450.74798029c0 15.54753005 12.12605569 28.21878579 27.12962723 28.2187858l214.54946183 0c5.40232909 1.98209627 30.93857955 14.26463251 113.2588965 84.38189624 47.92424736 40.73356098 90.99012415 80.45620368 91.45584238 80.92192192 6.1797681 5.67430834 13.99265326 8.6673229 21.92103712 8.6673229 4.58639133 0 9.24978139-1.01091828 13.52569348-2.99301456 11.85407644-5.59730961 19.47322262-17.80160558 19.47322261-31.32729905L546.90152933 115.22811737C546.90277088 101.97440315 539.63384422 90.04208643 528.28522754 84.25103785L528.28522754 84.25103785 528.28522754 84.25103785 528.28522754 84.25103785zM493.03223591 846.67738916c-14.53661177-12.86499472-30.86158082-26.97314546-47.6522681-41.04404021-110.0336442-92.85548017-137.16327143-100.66712379-155.70381603-100.66712379-0.3887195 0-0.73769748 0.07699873-1.12641701 0.07699873-0.35021953 0-0.73893903-0.07699873-1.08915976-0.07699873L122.77895805 704.96622516c-19.00626284 0-23.39891519-5.59730961-23.39891518-25.45801018L99.38004287 333.62627182c0-13.4871935 1.59337677-21.8837799 17.14090682-21.88377991l149.95126742 0c17.87984586 0 45.47519132-7.65640462 165.96575725-99.50096528 21.53107607-16.40072624 42.40393648-32.80393557 60.59426155-47.26230706L493.03223591 846.67738916 493.03223591 846.67738916 493.03223591 846.67738916 493.03223591 846.67738916zM817.30486394 508.14137139c0-87.53014981-45.59193156-163.98241943-113.3768783-204.98795967-3.07125484-1.78835729-10.33893994-4.93661085-15.39229104-4.93661086-15.00232999 0-27.20786751 12.78799599-27.20786751 28.41252477 0 10.45568019 5.40232909 19.86194212 13.60393375 24.79731144l0 0c52.39389844 30.97707952 87.84062783 89.59048636 87.84062783 156.83147457 0 68.40714672-36.65262941 127.91224851-90.56042158 158.46210855l0 0c-7.81288516 5.0533511-13.05997524 13.99265326-13.05997525 24.33159321 0 15.66302876 12.24403748 28.45102475 27.24636749 28.45102473 6.33500709 0.07824028 13.87467147-3.80895232 13.87467146-3.80895232C770.04255687 674.92182486 817.30486394 597.26489676 817.30486394 508.14137139L817.30486394 508.14137139 817.30486394 508.14137139 817.30486394 508.14137139zM785.89932461 158.83795266c-5.13034983-3.14949632-10.10546066-5.79229013-16.24672878-5.79229013-14.92533126 0-27.12962723 12.71099726-27.12962723 28.25728577 0 11.19337767 6.33624864 20.24942009 15.46928977 25.45801019 99.57920677 60.51726283 166.54821573 172.72674107 166.54821573 301.3804129 0 128.65118754-66.85226993 240.82340978-166.35323521 301.34067261-8.74556317 4.93661085-16.20698726 14.26463251-16.20698726 25.73123099 0 15.54753005 12.12729723 28.21754425 27.12962723 28.21754424 5.94628759 0 10.80589972-2.3323158 16.01324829-5.59730961 115.51545632-70.19426247 193.28912347-200.40156957 193.28912345-349.77037851C978.33276879 359.08304046 900.94781994 229.03345667 785.89932461 158.83795266L785.89932461 158.83795266 785.89932461 158.83795266 785.89932461 158.83795266z" p-id="2268"></path></svg>