<?xml version="1.0" standalone="no"?><!DOCTYPE svg PUBLIC "-//W3C//DTD SVG 1.1//EN" "http://www.w3.org/Graphics/SVG/1.1/DTD/svg11.dtd"><svg t="1508578607403" class="icon" style="" viewBox="0 0 1024 1024" version="1.1" xmlns="http://www.w3.org/2000/svg" p-id="10096" xmlns:xlink="http://www.w3.org/1999/xlink" width="16" height="16"><defs><style type="text/css"></style></defs><path d="M339.968 447.808a49.664 49.664 0 0 0 34.368-14.208c8.96-8.96 14.272-21.76 14.272-34.432a49.664 49.664 0 0 0-14.272-34.368 49.664 49.664 0 0 0-34.368-14.272 49.664 49.664 0 0 0-34.432 14.272 49.664 49.664 0 0 0-14.208 34.368c0 12.608 5.312 25.472 14.208 34.432 8.96 8.96 21.76 14.208 34.432 14.208M681.792 447.808a49.664 49.664 0 0 0 34.432-14.208c8.896-8.96 14.208-21.76 14.208-34.432a49.664 49.664 0 0 0-14.208-34.368 49.664 49.664 0 0 0-34.432-14.272 49.664 49.664 0 0 0-34.432 14.272 49.664 49.664 0 0 0-14.208 34.368c0 12.608 5.312 25.472 14.208 34.432 8.96 8.96 21.76 14.208 34.432 14.208M730.304 566.592l-0.576-0.192-0.512-0.256a14.4 14.4 0 0 0-11.712 0 19.584 19.584 0 0 0-10.88 12.352 269.952 269.952 0 0 1-29.44 58.88c-34.24 51.52-98.048 83.52-166.4 83.52-65.92 0-125.312-30.656-171.712-88.64l-0.384-0.64-0.448-0.576c-11.264-16.96-22.912-34.56-28.928-57.984-4.096-7.808-11.392-15.936-23.168-12.352-7.68 4.224-16.32 16.576-12.608 29.056 2.88 5.632 5.632 11.52 8.512 17.664 8.896 18.688 18.048 38.08 30.336 54.464l0.128 0.128c43.776 60.16 121.664 99.136 198.4 99.136 77.568 0 154.816-39.68 192.192-98.688l0.384-0.576c16.256-21.568 33.024-43.904 38.4-70.656l0.256-1.088 0.448-0.96a14.528 14.528 0 0 0 0-11.84 19.392 19.392 0 0 0-12.288-10.752" fill="#999999" p-id="10097"></path><path d="M510.848 66.368c-242.112 0-446.72 204.608-446.72 446.72 0 242.176 204.608 446.784 446.72 446.784 242.176 0 446.72-204.608 446.72-446.72 0-242.176-204.544-446.72-446.72-446.72z m284.992 731.712a400.192 400.192 0 0 1-284.992 117.76 400.192 400.192 0 0 1-284.928-117.76 400.192 400.192 0 0 1-117.76-284.928c0-107.904 41.856-209.088 117.76-284.992a400.192 400.192 0 0 1 284.928-117.76c107.904 0 209.088 41.856 284.992 117.76a400.192 400.192 0 0 1 117.76 284.992 400.192 400.192 0 0 1-117.76 284.928z" fill="#999999" p-id="10098"></path></svg>