<?xml version="1.0" standalone="no"?><!DOCTYPE svg PUBLIC "-//W3C//DTD SVG 1.1//EN" "http://www.w3.org/Graphics/SVG/1.1/DTD/svg11.dtd"><svg t="1508604644704" class="icon" style="" viewBox="0 0 1024 1024" version="1.1" xmlns="http://www.w3.org/2000/svg" p-id="2390" xmlns:xlink="http://www.w3.org/1999/xlink" width="16" height="16"><defs><style type="text/css"></style></defs><path d="M514.483 56.397c-253.26 0-459.29 206.029-459.29 459.264 0 253.26 206.03 459.29 459.29 459.29s459.29-206.03 459.29-459.29c0-253.235-206.029-459.264-459.29-459.264z m0 870.118c-226.56 0-410.854-184.294-410.854-410.854 0-226.535 184.294-410.829 410.854-410.829s410.855 184.294 410.855 410.829c0 226.534-184.295 410.854-410.855 410.854z m173.235-443.904H547.2V342.4c0-13.363-18.918-24.218-32.282-24.218s-32.281 10.855-32.281 24.218v140.211H341.248c-13.363 0-24.218 18.919-24.218 32.282 0 13.363 10.855 32.281 24.218 32.281h141.363v141.722c0 13.363 18.919 24.218 32.282 24.218s32.281-10.855 32.281-24.218V547.174h140.519c13.363 0 24.217-18.918 24.217-32.281 0.026-13.363-10.803-32.282-24.192-32.282z m0 0" fill="" p-id="2391"></path></svg>