<?xml version="1.0" standalone="no"?><!DOCTYPE svg PUBLIC "-//W3C//DTD SVG 1.1//EN" "http://www.w3.org/Graphics/SVG/1.1/DTD/svg11.dtd"><svg t="1508578651206" class="icon" style="" viewBox="0 0 1024 1024" version="1.1" xmlns="http://www.w3.org/2000/svg" p-id="10846" xmlns:xlink="http://www.w3.org/1999/xlink" width="16" height="16"><defs><style type="text/css"></style></defs><path d="M512.213333 747.136c9.877333 0 18.709333-4.586667 24.405334-11.712l435.584-427.392c5.610667-5.504 9.130667-13.162667 9.130666-21.504 0-16.917333-13.952-30.464-31.04-30.464a31.36 31.36 0 0 0-21.994666 8.96L511.957333 673.429333 95.701333 264.96a31.36 31.36 0 0 0-21.973333-8.96C56.533333 256 42.666667 269.610667 42.666667 286.464c0 8.32 3.52 16 9.130666 21.504l439.573334 431.36v-0.149333c5.461333 4.970667 12.8 7.957333 20.821333 7.957333" p-id="10847"></path></svg>