<?xml version="1.0" standalone="no"?><!DOCTYPE svg PUBLIC "-//W3C//DTD SVG 1.1//EN" "http://www.w3.org/Graphics/SVG/1.1/DTD/svg11.dtd"><svg t="1511504346420" class="icon" style="" viewBox="0 0 1024 1024" version="1.1" xmlns="http://www.w3.org/2000/svg" p-id="2671" xmlns:xlink="http://www.w3.org/1999/xlink" width="200" height="200"><defs><style type="text/css"></style></defs><path d="M714.08 474.88A213.92 213.92 0 1 0 928 688a213.92 213.92 0 0 0-213.92-213.12z m0 384.96A171.04 171.04 0 1 1 885.28 688a171.04 171.04 0 0 1-171.2 171.84z m0 0" p-id="2672"></path><path d="M512 845.6H272a56.96 56.96 0 0 1-56.96-56.96V318.08h541.92v117.92a254.88 254.88 0 0 1 56.96 16V246.72a85.44 85.44 0 0 0-71.36-84.32v-1.28h-85.44V132.64a56.96 56.96 0 0 0-114.08 0v28.48h-114.08V132.64a56.96 56.96 0 1 0-114.08 0v28.48h-71.36a85.6 85.6 0 0 0-85.6 85.6v570.4a85.6 85.6 0 0 0 85.6 85.6h328.8A257.92 257.92 0 0 1 512 845.6z m0 0" p-id="2673"></path><path d="M472.32 603.2H286.4v71.36h171.84a254.4 254.4 0 0 1 14.24-71.36zM286.4 432v71.36h250.56a256 256 0 0 1 148.64-69.6V432z m0 0M842.4 695.84a21.44 21.44 0 0 1-21.44 21.44H607.2a21.44 21.44 0 1 1 0-42.72h213.92a21.44 21.44 0 0 1 21.44 21.44z m0 0" p-id="2674"></path><path d="M714.08 824.16a21.44 21.44 0 0 1-21.44-21.44V588.96a21.44 21.44 0 1 1 42.72 0v213.92a21.44 21.44 0 0 1-21.44 21.44z m0 0" p-id="2675"></path></svg>