<?xml version="1.0" standalone="no"?><!DOCTYPE svg PUBLIC "-//W3C//DTD SVG 1.1//EN" "http://www.w3.org/Graphics/SVG/1.1/DTD/svg11.dtd"><svg t="1511504351041" class="icon" style="" viewBox="0 0 1024 1024" version="1.1" xmlns="http://www.w3.org/2000/svg" p-id="2797" xmlns:xlink="http://www.w3.org/1999/xlink" width="200" height="200"><defs><style type="text/css"></style></defs><path d="M786.491139 277.787963a275.880012 275.880012 0 1 0-397.485659 245.746776 412.015925 412.015925 0 0 0-171.047558 102.44325C139.260442 703.749042 73.923006 829.694265 73.923006 940.621629a23.111899 23.111899 0 0 0 45.980002 0c0-97.616081 61.192898-212.24915 130.723632-281.341051a366.279719 366.279719 0 0 1 249.501241-106.782826h9.605579a275.197382 275.197382 0 0 0 276.70892-274.709789z m-271.97927 228.144676l-4.778409-1.121464h-10.483246a230.143807 230.143807 0 1 1 14.383988 0l0.877667 1.121464z" p-id="2798"></path><path d="M609.494949 675.029826l48.759281 0 0 348.970174-48.759281 0 0-348.970174Z" p-id="2799"></path><path d="M902.050635 814.627647l48.759281 0 0 209.372353-48.759281 0 0-209.372353Z" p-id="2800"></path><path d="M755.772792 605.255294l48.759281 0 0 418.744706-48.759281 0 0-418.744706Z" p-id="2801"></path></svg>