<?xml version="1.0" standalone="no"?><!DOCTYPE svg PUBLIC "-//W3C//DTD SVG 1.1//EN" "http://www.w3.org/Graphics/SVG/1.1/DTD/svg11.dtd"><svg t="1511504365407" class="icon" style="" viewBox="0 0 1024 1024" version="1.1" xmlns="http://www.w3.org/2000/svg" p-id="3052" xmlns:xlink="http://www.w3.org/1999/xlink" width="200" height="200"><defs><style type="text/css"></style></defs><path d="M229.517241 459.034483h564.965518v88.275862H229.517241zM229.517241 670.896552h388.413793v88.275862H229.517241z" fill="#3E3A39" p-id="3053"></path><path d="M865.103448 107.52V105.931034h-105.931034V70.62069a70.62069 70.62069 0 0 0-141.24138 0v35.310344H406.068966V70.62069a70.62069 70.62069 0 0 0-141.24138 0v35.310344h-88.275862a105.931034 105.931034 0 0 0-105.931034 105.931035v706.206897a105.931034 105.931034 0 0 0 105.931034 105.931034h670.896552a105.931034 105.931034 0 0 0 105.931034-105.931034V211.862069a105.878069 105.878069 0 0 0-88.275862-104.342069zM882.758621 882.758621a70.62069 70.62069 0 0 1-70.62069 70.620689H211.862069a70.62069 70.62069 0 0 1-70.62069-70.620689V300.137931h741.517242v582.62069z" fill="#3E3A39" p-id="3054"></path></svg>