<?xml version="1.0" standalone="no"?><!DOCTYPE svg PUBLIC "-//W3C//DTD SVG 1.1//EN" "http://www.w3.org/Graphics/SVG/1.1/DTD/svg11.dtd"><svg t="1511781888976" class="icon" style="" viewBox="0 0 1024 1024" version="1.1" xmlns="http://www.w3.org/2000/svg" p-id="3121" xmlns:xlink="http://www.w3.org/1999/xlink" width="200" height="200"><defs><style type="text/css"></style></defs><path d="M377.317193 197.765466c-31.674415-0.114074-57.18886 9.430078-75.782845 28.17616-31.027999 31.370219-30.571704 77.151727-30.53368 79.052953a15.399926 15.399926 0 0 0 15.361902 14.981656h0.304196a15.513999 15.513999 0 0 0 15.247827-15.552024c0-0.380245-0.228147-35.134645 21.750019-57.150836 12.586112-12.586112 30.647753-18.974229 53.462458-18.936205a15.285852 15.285852 0 1 0 0.190123-30.571704z m152.858522 345.566729c78.824805-41.712885 132.629484-123.959896 132.895655-218.602897 0.304196-136.964278-111.716004-248.642258-249.744968-248.984478-138.105013-0.342221-250.733606 110.803416-251.037802 247.843743-0.41827 134.948979 108.521946 245.220052 243.85117 248.718307 2.395544 0.608392 5.133309 0.798515 7.642926 0.608392 193.126476 0.608392 351.498552 158.258002 351.004233 351.574601 0 13.15648 10.646862 23.765317 23.841367 23.765317a23.689268 23.689268 0 0 0 23.917415-23.613219c0.494319-178.943335-118.59844-330.813219-282.369996-381.309766z m-117.990048-18.289789c-111.67798-0.342221-202.290382-90.612403-202.024211-201.377794 0.228147-110.803416 91.296844-200.731378 203.050872-200.503231 111.67798 0.266172 202.290382 90.612403 202.10026 201.415819-0.342221 110.803416-91.410917 200.693353-203.126921 200.465206z m-284.461345 116.849313a394.466246 394.466246 0 0 0-117.875974 280.810992c0 13.15648 10.684887 23.765317 23.917415 23.765317s23.879391-10.45674 23.95544-23.613219a346.973635 346.973635 0 0 1 103.768882-247.387449 23.575195 23.575195 0 0 0 0-33.575641 23.95544 23.95544 0 0 0-33.765763 0z m664.934571-115.822651c60.801188-37.073895 101.715559-105.784181 101.943706-184.418864 0.266172-118.066097-91.563015-214.344152-204.685926-214.648347a23.689268 23.689268 0 1 0-0.114074 47.416561c86.771927 0.190123 157.193316 75.212477 156.851096 167.117713-0.152098 91.905236-70.839658 166.50932-157.64961 166.319198a23.727293 23.727293 0 0 0-23.95544 23.651244v0.152098c0 13.15648 10.646862 23.765317 23.879391 23.841366 153.276792 0.380245 277.731006 132.287263 277.388785 294.233643a23.727293 23.727293 0 0 0 23.803342 23.765317c13.232529 0 23.95544-10.532789 23.95544-23.689268 0.380245-150.082733-92.437579-277.959153-221.41671-323.740661z" fill="#231815" p-id="3122"></path></svg>