<?xml version="1.0" standalone="no"?><!DOCTYPE svg PUBLIC "-//W3C//DTD SVG 1.1//EN" "http://www.w3.org/Graphics/SVG/1.1/DTD/svg11.dtd"><svg t="1508572520480" class="icon" style="" viewBox="0 0 1755 1024" version="1.1" xmlns="http://www.w3.org/2000/svg" p-id="1434" xmlns:xlink="http://www.w3.org/1999/xlink" width="27.421875" height="16"><defs><style type="text/css"></style></defs><path d="M958.5094175 1019.98838615c-87.05723924 0-169.44205683-0.58444547-251.82844552 0-157.75943157 1.17203314-316.10487971 2.92065632-473.8627402 3.50824397-34.47128575 0-69.53173027-3.50824399-103.42171272-11.10289303-94.65974379-21.61819843-139.64633492-129.71076175-87.05723924-211.51270494 20.44773639-31.55062944 49.66372608-59.5961571 80.04546457-82.38167541 91.73751636-67.77839381 198.07674323-105.75635248 306.1708776-139.05874727 121.53323828-37.97952974 246.57000726-49.07928061 372.78038052-42.65509359 52.58438241 2.33621082 100.49791423 22.20264393 147.23941287 44.99130445 5.26000932 2.33621082 9.3495566 12.26864183 9.34955663 18.6975421 0.58444547 42.0706481 0.58444547 84.13344076 0.58444549 128.54501297h141.97940357v144.90791535h-141.97940357v146.07366412zM1071.85727684 38.96679532c7.00706141 175.87095712-137.31012409 326.61704293-319.6084104 334.21954746-181.12939536 7.5915069-335.96817062-134.38946779-342.9830875-314.93127548-7.00706141-176.46011587 137.31012409-330.70973238 314.93127548-337.14020376 188.13959898-6.43047138 340.06086009 132.05325694 347.65393808 317.85350288z" p-id="1435"></path><path d="M1173.52722421 945.79366076v-287.47176442h-141.97940358v-72.45081549h142.56542017v-143.15143672h71.8647989v141.39810029h288.057781v-141.39810029h72.45081549c0 40.90018606 1.17203314 81.21435553-0.58444548 122.11768377-0.58444547 18.11623882 5.26000932 22.20264393 22.20264394 21.61819845 39.73129508-1.17203314 80.04546457-0.58444547 120.94565061-0.5844455v71.28506672h-141.39810028v287.4717644h141.39810028v72.4508155c-40.90018606 0-81.8003721 0.58444547-122.11768378-0.58444548-16.35818911-0.58444547-21.61819843 4.09111836-21.03218185 21.03218186 1.17203314 40.31574055 0.58444547 81.21435553 0.58444548 122.70212925h-71.86479892v-141.97940356h-287.47176443v141.39810027h-71.28506669v-142.56542016h-143.73902438v-71.86479892c46.74621196 0.58444547 92.89855188 0.58444547 141.39810028 0.58444547z" p-id="1436"></path></svg>