<?xml version="1.0" standalone="no"?><!DOCTYPE svg PUBLIC "-//W3C//DTD SVG 1.1//EN" "http://www.w3.org/Graphics/SVG/1.1/DTD/svg11.dtd"><svg t="1507692532794" class="icon" style="" viewBox="0 0 1024 1024" version="1.1" xmlns="http://www.w3.org/2000/svg" p-id="2461" xmlns:xlink="http://www.w3.org/1999/xlink" width="200" height="200"><defs><style type="text/css"></style></defs><path d="M317.589219 903.187447H190.571337c-7.537673 0-14.017248-6.39771-14.017249-13.932314V134.702911c0-7.529487 6.373151-14.344706 14.017249-14.344706H833.364195c7.537673 0 14.478759 6.700609 14.478759 14.344706v406.857335l56.281841 24.108071v-430.965406c0-38.428218-32.327266-69.603241-70.7606-69.603241H190.571337c-38.435381 0-70.299089 31.122835-70.29909 69.603241V889.256156c0 38.368866 31.863708 69.189825 70.29909 69.189826h127.199007v-55.258535h-0.181125z m453.706339-436.468746c0-72.938196-59.141982-132.033106-132.037199-132.033106-72.939219 0-132.036175 59.09491-132.036176 132.033106 0 72.939219 59.09798 132.029012 132.036176 132.029012 72.894194-0.001023 132.037199-59.09184 132.037199-132.029012z m44.011376 175.525665h-24.330128L654.04411 920.442436l51.232848-255.803014-66.018599-65.956177-66.0186 66.052368 51.147914 255.691473-136.936789-278.18272h-24.327058c-87.958284 0-88.049359 59.656705-88.049358 132.548852v183.652764h529.049304V774.792195c0-72.891124-0.791016-132.547829-88.816838-132.547829z m-549.72623-430.811909h491.186976v51.16531h-491.186976v-51.16531z m0 130.983193h168.845523v56.281841h-168.845523v-56.281841z m0 143.262868h189.311647v51.16531h-189.311647v-51.16531z" fill="" p-id="2462"></path></svg>